<svg xmlns="http://www.w3.org/2000/svg" width="16" height="16" viewBox="0 0 16 16">
  <path d="M0 0h16v16H0z"/>
  <path fill="#ffffff" d="M0 10.84h.57l.3-.39V5.71l-.3-.4H0v-.39h2.87c2.21 0 3.19 1.24 3.19 3.08a3.26 3.26 0 0 1-3.19 3.23H0Zm3-.15c1.24 0 1.65-.78 1.65-2.38s-.66-3-1.82-3a1.53 1.53 0 0 0-.47.07l-.16.07v5a1.23 1.23 0 0 0 .81.24ZM10.35 8.46 10 10.05H6.57v-.4l.53-.58C8.17 7.92 9 7 9 6.1c0-.57-.23-.94-.62-.94s-.64.4-.64 1v.31h-1a1 1 0 0 1 0-.29 1.59 1.59 0 0 1 1.73-1.42c.86 0 1.73.41 1.73 1.38a1.79 1.79 0 0 1-.19.72 3.16 3.16 0 0 1-.44.64 9.56 9.56 0 0 1-1.12 1l-.74.58h2.06l.55-.58ZM16.07 9.26l-.4 1.98h-4.72v-.4h.6l.3-.39V5.69l-.3-.4h-.6v-.4h3.23v.4h-.78l-.27.4v4.96h1.49l1.31-1.39h.14z"/>
  <path d="M10.51 10.71v.4l-.4.59h-4v-.42l.4-.58Z" fill="#ff812c"/>
</svg>